<mxfile host="app.diagrams.net" modified="2022-10-28T08:26:46.200Z" agent="5.0 (Windows NT 10.0; Win64; x64) AppleWebKit/537.36 (KHTML, like Gecko) Chrome/104.0.0.0 Safari/537.36" etag="psGmm4Rh-to4hlPrqlI1" version="20.5.1" type="github">
  <diagram id="oryC58WnoKqvlX-wRenc" name="PÃ¡gina-1">
    <mxGraphModel dx="981" dy="548" grid="1" gridSize="10" guides="1" tooltips="1" connect="1" arrows="1" fold="1" page="1" pageScale="1" pageWidth="827" pageHeight="1169" math="0" shadow="0">
      <root>
        <mxCell id="0" />
        <mxCell id="1" parent="0" />
        <mxCell id="-RUZOzO9tPdPvZ2JyVpO-3" value="" style="edgeStyle=orthogonalEdgeStyle;rounded=0;orthogonalLoop=1;jettySize=auto;html=1;" edge="1" parent="1" source="-RUZOzO9tPdPvZ2JyVpO-1" target="-RUZOzO9tPdPvZ2JyVpO-2">
          <mxGeometry relative="1" as="geometry" />
        </mxCell>
        <mxCell id="-RUZOzO9tPdPvZ2JyVpO-1" value="Modos de Operacion de un SGBD" style="rounded=0;whiteSpace=wrap;html=1;fillColor=#647687;strokeColor=#314354;fontColor=#ffffff;" vertex="1" parent="1">
          <mxGeometry x="304" y="40" width="220" height="40" as="geometry" />
        </mxCell>
        <mxCell id="-RUZOzO9tPdPvZ2JyVpO-5" value="INCLUYEN ACCIONES" style="edgeStyle=orthogonalEdgeStyle;rounded=0;orthogonalLoop=1;jettySize=auto;html=1;" edge="1" parent="1" source="-RUZOzO9tPdPvZ2JyVpO-2" target="-RUZOzO9tPdPvZ2JyVpO-4">
          <mxGeometry relative="1" as="geometry" />
        </mxCell>
        <mxCell id="-RUZOzO9tPdPvZ2JyVpO-2" value="Durante la existencia de un archivo este es objeto de constante procesamiento." style="rounded=0;whiteSpace=wrap;html=1;" vertex="1" parent="1">
          <mxGeometry x="286" y="130" width="256" height="60" as="geometry" />
        </mxCell>
        <mxCell id="-RUZOzO9tPdPvZ2JyVpO-7" value="ALTAS" style="edgeStyle=orthogonalEdgeStyle;rounded=0;orthogonalLoop=1;jettySize=auto;html=1;exitX=0;exitY=0.5;exitDx=0;exitDy=0;" edge="1" parent="1" source="-RUZOzO9tPdPvZ2JyVpO-4" target="-RUZOzO9tPdPvZ2JyVpO-6">
          <mxGeometry x="0.4422" relative="1" as="geometry">
            <mxPoint as="offset" />
          </mxGeometry>
        </mxCell>
        <mxCell id="-RUZOzO9tPdPvZ2JyVpO-9" value="RECOVERY" style="edgeStyle=orthogonalEdgeStyle;rounded=0;orthogonalLoop=1;jettySize=auto;html=1;exitX=1;exitY=0.5;exitDx=0;exitDy=0;" edge="1" parent="1" source="-RUZOzO9tPdPvZ2JyVpO-4" target="-RUZOzO9tPdPvZ2JyVpO-8">
          <mxGeometry x="0.4422" relative="1" as="geometry">
            <mxPoint as="offset" />
          </mxGeometry>
        </mxCell>
        <mxCell id="-RUZOzO9tPdPvZ2JyVpO-11" value="BAJAS" style="edgeStyle=orthogonalEdgeStyle;rounded=0;orthogonalLoop=1;jettySize=auto;html=1;exitX=0.5;exitY=1;exitDx=0;exitDy=0;entryX=0.5;entryY=0;entryDx=0;entryDy=0;" edge="1" parent="1" source="-RUZOzO9tPdPvZ2JyVpO-4" target="-RUZOzO9tPdPvZ2JyVpO-10">
          <mxGeometry x="-0.0909" relative="1" as="geometry">
            <mxPoint as="offset" />
          </mxGeometry>
        </mxCell>
        <mxCell id="-RUZOzO9tPdPvZ2JyVpO-4" value="Acciones de ALTAS, BAJAS Y RECOVERY" style="rounded=0;whiteSpace=wrap;html=1;" vertex="1" parent="1">
          <mxGeometry x="322" y="250" width="183" height="60" as="geometry" />
        </mxCell>
        <mxCell id="-RUZOzO9tPdPvZ2JyVpO-6" value="" style="rounded=0;whiteSpace=wrap;html=1;" vertex="1" parent="1">
          <mxGeometry x="166" y="420" width="120" height="100" as="geometry" />
        </mxCell>
        <mxCell id="-RUZOzO9tPdPvZ2JyVpO-8" value="" style="rounded=0;whiteSpace=wrap;html=1;" vertex="1" parent="1">
          <mxGeometry x="542" y="420" width="120" height="100" as="geometry" />
        </mxCell>
        <mxCell id="-RUZOzO9tPdPvZ2JyVpO-10" value="" style="rounded=0;whiteSpace=wrap;html=1;" vertex="1" parent="1">
          <mxGeometry x="354" y="420" width="120" height="100" as="geometry" />
        </mxCell>
        <mxCell id="-RUZOzO9tPdPvZ2JyVpO-12" value="" style="shape=image;verticalLabelPosition=bottom;labelBackgroundColor=default;verticalAlign=top;aspect=fixed;imageAspect=0;image=data:image/png,iVBORw0KGgoAAAANSUhEUgAAAOEAAADhCAMAAAAJbSJIAAAAgVBMVEX///8AAABLS0vy8vLW1tY0NDRiYmL8/Pzr6+vT09P39/d3d3eoqKje3t47Ozvz8/MpKSmdnZ3AwMDl5eVqampRUVHMzMweHh5FRUWioqLFxcUyMjKurq61tbVYWFi4uLiDg4OQkJB8fHwWFhaUlJRlZWUREREjIyOIiIhAQEAaGhphRBzAAAANAUlEQVR4nO1daZeiOhAdBdlBdkUBFTfs//8DR+1uCUsgFBVgzpn7aV6/JuR2QlKpulX584cD5G/waHoSyIJnirskOh0zXUqD5dZa2feNvV89tssgvepZfjEOoWkq66l72hte6DqZFFibBRvsR+Dnxk4Vpu44A8xD5Fs3RmJ1nLeZ4XpTk2iGLIhRtgdTK2OZx+asZq5sxv4DiVyBIJvJaIqxZKOz+8VKP0zLUjv43Mh9cMvDibYXz0n50/uBnyjj09v27ubteyt8bYpf/ZfbNBlx7ZGTJVuvLOnkGImrmmtN0z7WzLdd8/yJYoZuHDnHlPFD9nfj8BO7vr3bPjjGO7Hf9q2orqFvO6meuM9W2Q3aOvDwndAc0glPdHOpdVv1RTQyDZAj+stXx0gUcBY9TQkdnf6lBi7KW5pgUNmdXA39bUqS0ezafYj+thcOze+z8hCf3S8UV2/+NAMV/V1ho1l2NUz0N1Ugi5fGT/+KvOYcG96RHsbaoRRj1fD+GPEN4bnW/DLmNzeb4Dn1RW6JNoy1AdwcuU/OBoT1jThBaVirmp/bZNzhK6A41cmUI7TqVRazB5+VmhFyXOGYDm5SrUz9Sfm9EZf/5PuBzh2z3Bo/a6IPovJHM+ibUb7Itpy5ODqV0pozZKJqpBmzHf0Q2oKQNFsleDvkn+qC1z0MaBLRN/CmsSMaGenw2QNO0bkzcLXRiEWL66EMiLjong5roTgsnef0CRZwC4own+Ny1iP4QjFRT5DHvc/jBnbP0FAshZCnP3+gB3a/8KB8GEJsrY/BPQ9DphmfY08EePg+cCkeBR+zGbKa/loNS/RuIeKzWEBMt8U/xRDSy99nv/6JWTqE4QwNtgI5CsMAvV9oEBYoDJH8PTygIzFcTOFZYwERZhjI0J6n5U2e7gYyXGzmoYoo47BAZLhY4EdChqIcCRvOEGT4cYRWcYAjMFykc1IpidWgGwbDGZ0TNb3WNxyGC2t6j/cLcUPXkBguFtL0Do2D1dQxNIbPz3FajoemWCkuw2dj7lTe/bXxRe0UoDkqw6eNc5nCyBGzli4hM3xCOow7kIrRrjTDZ7gYT2b23B26hXRcGD6h81dFyl7EovLkxfCJwBE5KobCrHFvGJXhE5sg4mAKrN28h+qfL8M3rFPsYS0+mmoc6xKeqRm+EWSx6A2x0BUvdHTGiTkJwzfuy+vJDc2eCloxTI7So+fITcTwF2c70J04eZJVmqev5omhm8Qnf3uHp9lMybCK28ZeWdvl1trbm8GMqpgFQ674z/A/w/njP8P/DOeP/wybgL4pcwUkjs+aiD0P+ACG4+VPYgASVnG6m50RIEdws7vZGQFAkNQmzh8gbSI9GW+GgMWoNX559tgAaoRLSoBZ4waWbdUDkfPEAUqwnG8xX0B2+194/4LpNkyV9g9sio+Bfmi1+xXTwhosETHnvWdICJGEdWsVhYmBkUP6pzmRex4Ypgslhn83z5kaKI29ZQZpJ2hzHMaSRAsSiy7rZtS5DWOqtPSWDdU5nsyJY60uhgNgWLOF5Iiq1xkZj7oKBORNrG+lmgGOYCJi25CIFVoQho1Lsdu/AhYummsMXbcQhpSBF/3pzHGbUidKAfq8aeVRhGQaT6O+oyl3fKhXn350Vpyxj45t5WJ24LhFq6vcjEZzxp2l1nJ08gIemekoM6C4/r2jc8NhZV2FqIIBDLvF65oZcawOaWdJt9Dq/X54dI3JyWMaHNbXJzsmF9q3rnZA/JC13pQQGv4Dh+dmmSUq62Hhxx84JEJ67PGMYroXPYUvs3spc8I+BXaF3+P5oBhw2vfspQlm4pz6FN7dBPolcj2hr1K1cLEMi3LfwGldmrhzk9jJ/XRrrfb2/b75+tps7ra9tx5LST9Fb9kb2NWCl3+4OE5V3asNHulAGqxUsOeX7lyO4CJoMaR5JVnuKrkzKGoTfT65smrtDIekp+Ff45YJTXV+0RRD+vRp3btGDzWiJiqYdM2RDYo/DFJEh8Lwua46Ey06slh3294fqf4qqQ1Rm1AZvgYyHv+L9C6VLAVLj0RvSFmSNoaLV/LamFaAV01dy9z14KhTB8MnttEo01VWT2Vb3r7g5LF2M3xile+4zlfZS6qVvX20HCsmhu+h5HXVhhj71azfc4T4B2Vm+ML9alBdfRAo7iWo+9dvuBUBejH8hu+4ysAF4HW2PDVHnb8wy1u/AGD4hnU9GqGp9B3RtWfuHL3lIogcfe2GMvzB6w6nU7ILRVpe1wuaYqqha+TXpdXhlkw5mIsDGZZxt7ZBKl19/Zhnun+VguV21ced0zJBPTc2Iic/RUac9CvxP4dA2g+C5rVaCE/X2qxeZobHyBOSyckHjfFdlbIevbBiu3lnNuKEhoCocum8HkzqPgO5XW2MA7s+Q3eMUdpTh1kuz0KXuKx9U83VW5qRtxtbc5imNWUlrXoLDXrbOM5AeVmtRe4BQpZtll7e/ThfVAQv2gnUikV32csTa4QqU9QEX69ID/SGmP3tjVXZ2muqf8WKgPo1TplUYpd6JQ+MNFOPzRec3kJQMrWFnktoHVTLtq02E1eULBkFYUWgavsmWlAzsg8myingSKOYYLTeFyWZmojUKDU7Sp3gHEVaW0r3rzOCmsMnSN0P44L8ZtaIu3LZviFN3kP3w5ggxaIy6jm1tH6VzPL1CNfiFiA3CuT8OZJV5eAZjpc0eyReO8SSaYJFGEq1/WM3luCSMGa87t/uCWIbsqsMaxeCcQLxp5Wx7jInUCj1Gss/t18li4INscTxMBpvn/bLZsUHIu/UWaI6Av4cfeHDi1psXmi5MxcBxFLAIic/OiQilr3ll1fFdCrBzLl9kUS+HZO3rzIMV4ZHfnktWl0ccpgNPtA0gnDlMk2VSjiYyfxyPwzbL0WQTcAF61249hxCEMOgYLjoco4LiY5rlxOearY/H4Thz4n//c87g5rDc/UeYtl2EFsFY0UHEMOgYLhYsUmSvfBSi7lDQBzhGA80IIbfn9/Pv8/MoUlZCyN9IM1ikgrdv/wGjGFOMOxddUJTD87VsvtGPTar9BgTtdCj7kcGMLyVGMIu6BRMNYxPupQu6Ww3+0cg+XnkhmItcYR1w4UxfE8W4j+3g4LosiYonueZohru3ENycHehKpqepyiCRg3xMwdNgAz9P5U4PqxK0QCwTlIoQ1urKhX2I19twXyGATJ8rabVH6VjXqajMdsRUIZRk9rEH085y15SBcrQb9bT+GPJvNmPvlCGz1Na88+Dca7vYHftgRkKVE3UyhhBAc3uLFGhD4Ztqq8UXlyLDWuayk3XhAoqU6r6/9fUjTXu0LXpIc/ZSg1V9C89R23q0qncO+sut+lKjTYhMrwyaRNTg8/iSj0bIjJcsqovb36Mz5Ias0RkaPXSl/qRWP3kB4GqkEBkaPdW0D58R8Uyeqj1bxEZnmEa4f1SN9zhs5Zq0iAyXAxTQS8zx3DFtcwwdWVZEF3DyYJzEZIZg+ENR+e9eQR+djw5xufc+zoLvw7DbhxdTsdMIu4DKg6h1NMhIsP7BBXLC4c+NS6KyHD1h3/VkiqKYBfV3Y3IcMsU48BF0X2qZBCRYcruKUFDoZelBg4RGeaIQh1WFCoCgbYINEdt27Cmvc2YorD+J2gh06Iy51UFm8rmq9uVX6CG6NzRZUILUoTBvgiAz/gv+2v04nPFeZ09TwDM8DVhRhfrFyIF9mLpUIbfAbYToJdDUKyU7MsclOGPATXy9QiboqfMej0owx8f/pqPGoGKoqfM0mQgw9uvB0YYVz1bBEiZP0QgwyKXQxm1PuKx6CrrI0CGhHR/1HLehFqQdb8AMiwpMMa8A6KwUFjl6zCGlZSxETNnCNke42oKY1hNMPVGm6mElI7x7wpieP5Tw2jDWExTxutDQAybBHvKSBkJhO6D7UotCMNNczq7OMpUvRXeOY3pAQhD6hVmrDnUg0DU2GYKBAMYnlsqEuz4n4r3xOtYDKpYVAkwTbT2Gikm992RkLXwuXCqs/CZ0F3PYBDI7F8u/j6WoIOa8XQXE7sxD7E+48Utmstv9yALBGInBdXyp1vh6pzOHaQOAj2jrGcAUL3w8AIQeyJ6XhDg7h0lbCkUA8SRaB/XHQa9RlALL7gsSRkQ5pYBuVO3gLKLJJQpZW/1Uu4jnmcaUuS0RlN8lSwHpgzdLCmLG7QAWLfa7vHqoWmK6RqnY8o6pJafOwdToco5cCjaQyqB0iGYoZvExuVdwywNtg/rsQy+y5pdjPgQmky6KoxtcTvHmuQFhhetqhbzmR2Glj3oH3gcHcKg/Yi3XBQH8KRgax51yLsRAssrIF0DOQZkiHoimL7Ieh/0d/n9G18gCbMPRxu3LO9YYHYVreJRMid4QHEYIrd8tfb8Yeaturv08G/T+4bn+k3bxz11xsxB4433BVN+ulzd7Udw1Y+GOugugRlDZlEjV/AXYQfok1pkAn4AAAAASUVORK5CYII=;" vertex="1" parent="1">
          <mxGeometry x="191" y="435" width="70" height="70" as="geometry" />
        </mxCell>
        <mxCell id="-RUZOzO9tPdPvZ2JyVpO-13" value="" style="shape=image;verticalLabelPosition=bottom;labelBackgroundColor=default;verticalAlign=top;aspect=fixed;imageAspect=0;image=data:image/png,iVBORw0KGgoAAAANSUhEUgAAAOAAAADACAYAAAAdgW/XAAAgAElEQVR4nOx9ebhdVXn3b8/7zMNNbm5uRiD4CJZQP2scWvvZVr8iYyUgRIyQhDEQRLSUUlptEaStYpWCAxIRFVDUVlEmDYpICjYEkUgYQoBghpube++Z99nz98c+7zr7nHvm4Q7h/p5nP/fcc/Zea+2917ve+V3cwdExl+M4dIJJ17lud9f3CP1qt1tM97jcNt/PVKFf4+qm3eprXddt/v5Kv/uv9X+udT3f8QhnKKZ7ks+hfcyGd9YzJlUFcTbcfKuY7nuZ7v6bodn4ppNDchw3ozh0N+OpvrbRcxc76qFJo1Nx/XRgNo65HcxkAu0E00nUrfbdFgFON9Ed7gTwRkc/FgB/m+1ez1XpdO221cr5TQnwjTTp30j32gkONw7ZKmrdd7vctd75h50Rph4O18kxmzD3DiajIQc8XDjCVL34Zv1M9/OcCeNryZz/BoJIvjsXgCiKME0TkiTBtm0AgCRJSKXTCIdCsG0bfImVchwHx3Hgui5EUYTjOH0TUapl8U5h2zZE0VtzLMsC4N0zz3uCgGEY7HfHcSAIArvXdmX+TtDt9dNNYNPdfrf3X+v6RtbM6v+b9l/jO9H/o2EYkCQJuq4jEAigWCxCNwyEQyEIgoCipmF4eAgAYNsuBIGD63r+R9O0IUlCwwHMBLiud/A+4duyHEaQPM9D0zREIhHkcjkEAgFkMhmEQiE4jjNNo57DdKHfltQKEVQURbiui2Aw6HE7nmefDcPAwMAArrzykxgdHYWiKDh48CBisRhkWYamaX1fAXvFAQVBgGmaKBQK4Hkeg4ODGBoawvr167FkyRJYloWJiQkkEgnk83lEo1Fomsa44xzeWOjnvOZGR8fYrLYdhxFhUdcRjUSQzeUgSxIA4PQPfhCCIECSJEiSBJ7n4boubNtmBNvVYPpMwKqqQtd12LYNSZIgyzIsy0I+n4emacjn8/j617+O448/HoZhQNd1tiAVi0UIQnccfrp1n5luBOl2fL26v07b6chNcujQOLtK8Ok//gaTyTjOPPMsjBw4gAULFqBYLILjOIiiCE3TIMsyeJ7vWkTr9wS1LIstEjRWQRDYd4Ig4MCBA3jkkUdgmiZM04RlWZBlua/jmi2YSgLuR1/tttnLWNJ6qGBZhmHAsixYlsWMMQVNw8GDh5BKpTA4OAjTNBmXNE0Tqqqyz93CcZxJB3FX27Zr/t7OwXEcBEFgYigdgEecmqbBdV185StfQTgchGVZkCQJoigyHXEOU4PplhZoDP2KASVUEKAkSbAsC6FQCBzHwbIsDCSTyOVySKfT0HWdiWzBYBCSJEHTNPaZBtzpwfP8pIOIpNZv7R5kuSVi9FtyeZ6HKIoYHBzE97//fbz66h7Wv2VZc/rfGxjdEGIzVBAguRRI3ylomieCKQoTMyVJQiQSwfj4OGzbRiQSwaFDh5jJvpujGtW/dds+cW5ysQBg3BXwLKAkpn7xi1/EwECC6bb+a+Ywh25BRF2xrPudpBzHQVUU2LbNvif/YC6XQzQahWma0DSNuS4ayb21fmvmV2mlDf+1tWL2/NfZtg3TNKEoCjiOQ7FYZAYlP2HG43H8z//8D55++hkcf/zxmJiYYOfQg3Ndt4J7zrRo/n6g337KdvrrJF+vXb9dt9c3Op8+t2W2TKfTEEWRWRM5jkMwGEQoFGqbu9Eg/L/59b1aR7VO52/f/3+980j/0zSN+Twdx4Gu68jn83Bdl/n7EokErrrqKgBAKBRi1wBg1l9qk+O4OQ45zZgJOmMnaEmxoZuLxWLMUEGO+pGREaxevRof+9imvg60F7AsB6JYXnPuvPPbuO2225BMJhEIBGBZFsbGxqCqKiKRCHbt2oWnnnoKRx99NMLhMHieh2EYTEQnkbaVKKBWMNUcZjajFxLHTJBa2sqGIJENADRNgyAIUFW1JIKayGQyLXdcL8K8Edph+bXC18jvR+LmRz/6Edx7773MN2hZFqLRqOcHLRZxxBFH4KKLLsL27dswMZGGLMsVoo5f5J0JL3MO7aOXibedoCYB1iMEWu39JvxCoYBisQhZlhhx1kM9Ha1Zv62iGQGS2KwoClzXRSqVwXXXXYeLL74YCxcuhCzL4DgO2WwWiqKgUCggFAph8+Y7cO6552J0dBSBQACqqjKC9et/0y0GzfRIpF7HCnebr1evnU7G0Mr1tc7l651Q62GRq8GyLKbzyLIMQRBg27V9b7X0wXq/derfa/V6MhzRuaqq4vjjV+Koo45CNpuFVrL6BoNByLKMcDiMWCyGO+64A7lcDvPmzWPGG47jIMsyHMeLI+02SmYOnaOWm2C6F8NmoPFNMsI0G7jjOOB5HqqqVmVE8DV9e/52q31+rfgBq/14jQ5/P9X9AkAmk0EkEmHWUM/4UsCXvvQljI2NIRAIMD3PdV2Mj49DFEVwHIebbrqJ6Y9kEKq+jznMoV00tII2MudblsVEOo7jYJp2Q8tnK+y9GQfzj6sekTe6F0WRYRg6eN77bFkmXNdBIhHHBz5wAlKpCbiuC1mWYds2YrEYTNNEPB7HQw89hN27XwXguSkcx2EumEAgwCykc5hDO+BrTWRgsouACIDjOOZ0J52POAF9ricS1Put3jmNOF1NuJx31P6xxLUAx7EBuJAkAaapI5/P4oYbrsf4+DgLxRNFkbkqXNdFLBbDpz71KUQiYWQyGSiKAp7nWbwox3Hl/js9ukWf+2/1/XQqEfS7vX733+41HMe9UUpSuBV//a4D8umZpoENGzbAtm0WYO44DorFIhO5n3/+eTz22K+RTCbY4kPnzYmgc6iFZvOiKQH6dateddo3cK53VKCS+PwWL47jwfNCye2gY9Omy5DL5aAoCjRNY6F3xOmWLVuGq666ChwHjI2NsR6YeEz9d3r06v6nq//q4cywRWm6dPVGffaUA9bTx6bupt0aB+DnfPQSSMT2xsbBth0UizquvfZaFItFAGW3Bd3D+Pg4AoEAfvzjnyCZTDLxNJfLIRgMguPQ1dF9sHl3/fcDM40Igc4JsVtxuBZaIsBOuV+7RNidDE7EVWtyla/3JqsAwCunAXAlTsjDsmz89V+/H4lEAqZpIplMwnVd6LoOURQxb948SJKEf/3Xf4UkCax8RTKZRD6fY+Po7IDvbyfwtzEd/ddHr3TGfumInaBXCwsjwHYDS1vF1K6ArUwgemE8iAhdF+B5oRRoXsCNN96IQ4cOYWxsDIIgQFGUCqunLMv47Gf/lflFKVOkWwLqNtujNwT8xkOvuFonjny+0YWzg+j8qLWql8FxFERdfuiu68J1ANcBs+4eeeSReP/7389yBPP5PMsNpOyJhx9+GCMjI0gm4yyQu+vRd02Ac2iEbnXAVq5t9z3wveR8068DAvWIj8bhcTyXWUCBsv/R0A2WE3jFFVcglUqhUCgwB73rurAsC4lEAoZh4KabboJllUszdot2zfzdimBvVMwkIpzkB/TXwuQ4jkW+0HeVxovKOLx6K7L/ml5MoF5cD3gBBRzHsWiXUDiEbDYLx3EwMDCANWvWwDDKREkEm81msWDBAmzduhXPPvsswuEwe07+5+J/DrOBQDoh9F5y4EbvspX2Lcticb4EynJpZazN+q91bTtzsWb0V9O7mmFoPpG50lEP9V8kJRoXCgU4joOPf/xj2L17N3Rdh+M4rE4OuSWi0ShuuOEGxhn9xFYdotbKAjTdRyvPnu6N7q/dUMFW2vd/9v/fDFTLleM4qKoK0/QydCRJmhEV7WoR/qwiwNaJrx4R1rH2lfxgqqoC8Jzr2WwWrgt8/vOfZ4RJkTEAWCLu/v378cADDyCRiE8KEAfKTv96gekz6WiGWuf3sv9midbNjlwuxxZITdMwMDDAAiU0TWt6fxVTYooklrqhaLMTzUN/OM7/t/IgcZNe4sRECn/zN6chFoth7969k9KQgsEg4vE4/umf/gmAZ00l+CeP/7v6Ry8mczdttH9trxcVP1pdFPzwV7nTNI3VKpIkCeFwuK22OkEntNTXUl+9IurW2uHgcbZGnK/e/971qqqwym9UjFfXDXzqU5/CJz7xCXAch0wmg2g0ilwuB0EQEI1GEYlEsHnzHVi//jw2kWuNv9mE6vZ5tTtha4ygq36nexGnAlocx5UqGACplJck7rrt52u2+t7qXdvKdTO+1l57D60e8RFxNoLLuBvlOLqup9u99a1vxfLly5lf0LZtVrY+l8shHo/jO9/5DrZs2TJJPPOvis0KF08/AXbXfrfj79T4QiBjIRWJHhwcxOWXX45ly5a1Va2h3rjafb6tEGF5c5YWKXYq0c4LdV0XzKZUEdfYOmc0DAPxeByFQgGpVArz5s3DxMQEZFnGP//zP+Pkk0/GihUrYJomUqkUZFlmm7dEIhFk0lk2lo7QbTxmlxkVXBOLwEybH9UQRRHpdBrRaBSWZWHv3r04++yzceutt+L4449HPp/va/+d0BBPFzZsuPMxTQma3zRX9bf2OcFgEKlUCjzPIxQKYXx8HOFwGPl8HkuWLMFHPvIRjI+Pg+M4ZlnLZDIIBoMs0x6orwtMt5WzV1bKmdq+bdsIBoNwSnucxONxDAwMYNOmTVU7dzUKx+sO7UoBIuCT4QE4pT0AqRlREADXBV+DDdeaYI0G0UwO71SEKffLvql1FiZzwsrzTNNiVjMAzJQtSRIKhQIuv/xy3HfffewZ2LYNQRCYD7D25jTlPlpfKDpEk8ubPd9+M7heiNhEbPQsdV1nO3gBqHgPfqv1zp0vYHh4GIBbyoBxmM5IccDe8Fqbn7WMRu1eA0yxG2K6lfTJbopmbotKBAIK1q9fj3Q6zcr4U6xou1a+6cBMH18zUMAE7V0CAMFgEAAq9iYhQqXNV13XhWEYvvlX6167u/9O53ZNAuyES007bU0BRkfHsH79eawuKCn7VDtmtqOXboR+oFgswnEcKKWtEogQ/fuZEHckIiSrKKtagNqcqFMLabeYNGsaiY/9QDs3MpUctFZftNreeuutWLt2LZYsWYJAIMBevut2u4Nut/fX3TtynP5ygeYicOP+qRi063qxt7RtXLFYZJuvUtggOfVpoayl/lQTpPd//4yRtcRRsd4JnTQ6Fdd1g2779CIqdLztbW/DY489hhtuuAGHDh1CPp+HZXl7TnROBK0Yihqh25y+bvvvngCbuWn83I82UFVVFYlEAo7jIJ1Os2p9fuLiOK6ibEirtohW3S7d+Anryk1+RbfZb61O7OnXAbsD7ROo6zoSiQS+8IXPw7LIADN9jvAyuuvfG343BNhK+53Db+NynPL/mqbj8ccfx3XXXcc23iE/LsEvgvYanRIix3GNHfGznWB6DQrIjsfjyGazLGJGkiSMj08gEFAbXt/8ebZmDKqN5qb0ZhOkWwJshm4XKBIrRVFEoVAAz/NQFAXRaBhKaSevev1U64CtuEYaMaFOUKu9mjpgK532mjh7fbP9gGmaiMViOHToEGKxGAzDgGEYzP/UTAds7f6mO6u9mzb6u2D7t0SPRqPgOA65XA627ULTNDYnq4O6gdbETm8O9vUWJs1z0T8okpVpV1jycQGdy7mtohXLVDtEWqvvZj6ZZuOVJAnFYhGhUIgFZJdzAN0KP2Ct9pvpOILQnVfIthu3X8tPWeuZdLYQ0rupbeioh3bep+t6u3KR/9Vft5W2Snddl+mIZIChSub+UDV/u/7f6o2fzms2xnr3Ve8+Z7TtvBuOWCtAuJvFBKg/gb323KZ7BDabjP3eY7BZ+90uIPVE6FoBGu2+A79rwXEcRlSu604al79tuobO886dbKDx/gf7rfpddSud1Xv3DY0w/s9ToQ/WjiRpHZ1a4ejhNuu/meGpOumz+qVNt07dznhqGRaa+To9N0brYWfNxlfrGrqOavQAYMEQ9dqnMDVKV+L5ybqg9+4b6+DtLJCtSms9N8I0C0drhGYrbLcTultxqPH4SLSp30ZzDtJfNFvVm42v1QWq3nPshOtV90+cjHx9RFzV3Lva4EJbrXuHd55f9Cxzxu7dE+2grQ06e3lurWvaJZBOCarjsKGmHLpe1kWr/U6vG6M3Ekh9zlbPEV4PzdxgxLlc161wO1QbXMg5X3u8/jYbDmfSdb3wE/ZFB+yHX7CZ+FeL5dfzV/bDguuNsZtW3K4JgETATvvvdoWvR4CshzbfYb3x+AnQbzj090OESeeRG6JanfJ/1+8ImFrtVxBgoxVnKvSXRsp09Xiq/28lHrHbCdYpR22tX7dLAu52Ra402Te6vhfja2SFrmdBrLZIEter1s2qo19aEUHbmT/+/7sl2p5zwG5eEsVaAo0nUzdia6PrOmmrdW7f/ByypnaG1hbJ+o+1MpSt/Xut7YbolJhrEavfWEZGFb97ol77dI4si3DdAHMbEaf0dEih5vj90HW951xyEgFWp/VLktRQOS+vTuX/61m4SMSiwFlqNxoNY+/e/XjppZcqgmdp1SpbqWY2upcSplcHnP5g8sagOq5UFoTjOLaT1cjISAUROo4DwzCQTCaxf/9+pFIpPPfc86X9HytTl4DyniH+3Y8B753SdgQrVqxgNYMsy2I+SKqeTrmH9VDLDdN1MHar4Dhvb3UK4yL2Hw4Hcdlll2Pr1q1MpCBi9a9wrVgQO3VD9ArT7WboFv3SgVptv5X+6RkTociyDFEUYds2kskkAC+Rmqyktm1j0aJF2Lx5MzZv3lyxqFOffl2SFnu/v5HGtWzZMnzuc5/D8uXLMDGRQi6XQyQSga7rbP+QdjGljnjK4aKbDoWC+PCHP4IDBw7gqKOOYlzPn90MoCKSoRGm29E9R4CN0aw4biv90xygc8kFQdULKFheURQEAgGMjo5iwYIFSCaTFVytuh0y1Pirm9P3hGKxiLPOOgsPP/wwqwdULBYZN2yHAImxiNWddPJQWgXtvR4IBOC6LlKpNLZv344VK1agUChMslL5CdEvstZDs98Ph6TZ2Yxe+RlJ/6M5QZXLPT3PC0MrFAqQZRmRSATj4+OIxWIV8aIkVfkJkOaH67rMbVFNkMFgEHfddRcuueRiTEx4hbkkSWJb2PnH2QrEVlftbkzTfiVa0zSIoohwOIxt27YhEAhAFEWIosg2xqRzq19Y81jKxitsvx3h/eYg/Ua/OXiz99NMQvGXmKB3qShKhd2AiJB0wFgsBtM0kcvlIMtyhcvBv9hXuyporH4ViIh79+7d4Dgw4qcxENrxE05JYV766zhOqWAqz2p0OI4DVVWRSqVYRSuSxf0rSisiqL8uSC3MBkPOdKLfC0iz99NMQqH9Gf2qil9fA8DESGprbGwMgUAAgiCgWCxWECqACoKstkH4CVUURUZstm3DNG1mnMnn8y1JV7XcFh2nI3UC13VZZWmO8zbQUBSFbfHsf0G1nLLNxtXMCtXvCTanAzZGtxIKbYTqL5pM+hwVVaZMFUoRIyNKLpfzlQ5xJ3FA+t80zQr/IImiVOKeylASl6R0tHA4DF3XK8bbypyd0sK8oigyLicIAjPpCoLAiI9ekq7rKBQKrAZIdYZzLXQvYnYb8T67Oex0uyGaSSg0Z+hcf4A1uSUOHjzIRNVisciMM1S0l+AnQOKoRHSqqiIWi7EAb5qvtm37OJ7XvqIozBLaCg1Vn8MIsNrZ6We/zRr0f653PsnYJE6S3E4Pna4zTROqqsIwDJxzzjlYtmwZMwf3worW4Oqqv+2Cq/pbo4eqiI6pQmv9dnf/rts8FK0Zmj2Xcs5evTF0t4A6joNgMIjx8XF885vfZFxVkiSmn9q2XSpDCWb5rN6Ep53xTYtZsN6DVlUFhUIBuVwWxaKG449fiXe8YxUAoFjUmxJg9zpeLzhg57GQ/UDrfbodccDK9ruNZW0tG6beZG/EMPyBIPXb9/4qioTPfe5ziEajzN2QSqWaqji10IwrTikBNh6Mi3w+D1VVIIoCRkYOwLJM5mfxRI7JEe3V7TdCu7F+7f7eLJ2l/fa6Q3scoXkYXK322umjV++nU07X2MjqtZ1OZzA8PARFUZhzPZ1OT7JRtING837KizI1atOyTLiuzKxOVPuR9l1oJ2G23b57ec1UtNVJf92KaLVCqXp5T83erz+lqPpemqlMrQRbK4qKSCSCQsHTHf26X2Vl7fZRjwhbLsw7FcRIVivTNJkSzXGVkez9RL0Y1vZ8pdMbDlcPzZ+di1aH1kgE7CdIBWknZK2dMWmaBkHwwtrS6TTmz5/PLJx+J369vjpBhRFmKmIlG62chmGwsnO0AgGeskthP83a78UY633XnMO2rgPW6q8fHKre7zVG17UVtNvxt2PlrscBqz+3My7P+GciEgkjGAxCUTybRDabZft/VKP6mbc7Byt2R5oq1BukoiiM+5mmyYqsGobB3BWdtNuPsdZGcw5Y3XYnE6VRexWj6bEO2Fm7bYygSbv++M1GC2W975u1XywWIYoSTNOCpmlIp9PMvyeKYpWfuv49tDNnxHbYeS/QqC3TLDtW/SxfEATmz+nnOOtx59babX5Os0nT7bxutho3ftdkQGpu5p9OMbp/bgiO7b5k216USywWYxvx1NIBG+mbrT6jilhQygEkxZOc3+046f2d15oA/t8rzcocOI78hTZUNQDX9coscJy3f1s9lPvpbmK0o2PURyOzf2MrYvecpZn+Wb/vVvyYzThMt4EQrXCq1nyZrWFyP56vmhzwfpWn2t/tv76R/7ui9Rr0MMPSA7gGR50rJt14N0RYO6u7NbQuwtXtfVpD2ei+2x9DL5zwfkxFVNZMwayOner1hO3lS58NcaG9HGOvjXiz4fn1Aj0nwDfKg2uE2fQMej3WVsWxmYCZMM6mCbntoJac3C9Mh1N9JrywfqBSh27PjdKozV5YdTuJtOk0OqdXVuh22mk5IXemoN3xzrb7O5zRyWTvlKimU4dsp/++6ID9mvTTSUxzhDy9i99sW3hbdkP0eRzTin6I1v1Er/yY/UQnYmG9CJI3iqWzESoIkPw4lBFMYWF+fx0p2bV8IJ1OIH8gba0+Okkzmm0r5mxCo2fVTghcpzperX5qWWHbFV9pzvvba+QH98/7Rr/X65/juMki6OEwEeeIb/owXc++UTvT/X4b9d+SCDqbRIWZTHzTbRmeqvfYKzF1uvvoJer1P2WVsWdi+/3wgc1kNCfQ3vY1mwhkujBlRpip9BFOJSrvZXZPIH842WwghnZ1vJlI5DV1wKniDL3oh8bbrvjVq74PV/Tj+bRSsaCT+dfONTPtnTEC7MXK0K4FrJd9N0I/iG8OraFdIuwG7Tr3O7m2F/37UZGQW8+M2+4g+sfxONRP96nddnvEN7ULQTX67QdsrX23zufOwXE0tkp3Vo0zfdd0Ji52EhTey0Wh7YRcAKjhjZjk66vupFFWcr0B+K/z33Q9Wb66xIB3WiOfY+3x1D+/oreqv5PbqH9Na+jFAtdO++1PrOrFqs5ZHUxYjqsmqsm5eNUVBbrxE7Y3tvb68eZx+Vq/v7CV8fn7mrZ0pNZldv/5zY7u+mqP+N646OaZ9Gox6zWm6z2XylK73jFL0M7D6s9kmcNUPdfD8R3474mnL2bijXY7ppl4T4SpGNsb/f6nuv9O6GjGBGPPNP9MJy9ouidVLbQzpn5Ho/QbU2lZ7wS1nhc/A+fMJPhXln77e2aqNDBT0c3zavddtuMn7NU5naCddktGmP4X5QU6e1mtnl7Lqtou5givc/Timc9ErtUO2iF6+ss3Mr/PNEznqjaH/qGT93q4qAglHbDs16g257fFTlvM22ulTfIZNloUu40vnXxNfx3lMx3thvM1u75dH17Z1VT7+mpfW4U/zVc1uzqPtDyXGruZ6vm1q8dQz19dLYU1q/nKcRUe+JnPAXuJw52YZgL6+YyrC0DXiniabpG2lfufMVbQOfQ/FG22o6YV0bdrbrOK2r14Pr1eVKYlHWm6MGec6Q71QgZbuabd6xrBX7ak+rtGffaSCNudEvXmENMBS6d1PqoOOp/p6NW4p+r+W+1nOupf9gvtW9UbE+FUz9W+x4LOVuLrFWbi/c/EMbWDZly1nd97MY5G7TXra1bvDdFP9OIlzeSJPhvvr7oSn98i2S/O1m8u79MBaYDV+WDtpGk4TW603Ycwc3yUM8GqNt3o7zOoN/98/7leuUyOq8wvpLFVtMZxbW2X5rpuQzdao/S7TuBzxHPeH5ZnV3mUumcX1aoHWtmo92DK17u+6yfn+FV8djnv8PVZvt4Fx9FR3bZ3eFssu1XXoO751ffaKNSpnXIKsyWcrd0x1xPnygdfcaAqXYy+43kBgiDCdakQlHe9ZVkQRQGu68CyTEiSCJ7nYFkmBIFnv7muA1EUIIoCHMeGbXsbuwqCR0CO48C2bTY++s5PlLT3JX3P8zzbmJPO4XkesiyzHXLpO9ooVlEUWJbF2mj2nKufpeu6RIC1Vh80+K4eGp3bycrZXcLrVGE2EFur6P5euLqH47jgeQEcx8O2HXAczwjR2x5agGmakCQJoigil8vBcRwEAgEUCoWKwtGGYbDtzD1i8oiOiIncE47jVBAIcTnbtiu4nmVZ4HkelmUBAEzThGmayOfziEQiKBQKAABd1xGLxeC6wMTEBILBIAA03T69Hg5rP+BUxbfOlLZ6JR72S9Ss5kaAN/E5jkMkEoFpGnBdt0SMIiKRCBzHgWVZCAaDjEj87XGct6W0YRgQRQlAmciIy9G9WJZVsQtymXi9303ThOu6kCQJ8XgcgiCA53lkMhlEo1EUCgVEIhGk02k4jotoNMq2sKb7aBeHNQH2G52YwPuJbkPJqtvql77HxK8Sp6LvTNNCOByCZVmM49F26bZtMzGRxkUE4omfYokQbJimWfpOqOhPkiTG5apL0EuSR7z029jYGObNmwdZlhEOh6FpGgKBAA4ePAhFUSAIHBsfic/URjs4LAnwcBIJDyf4HehEULIswzAMZDJZhEJBpFJpKIqCQCBY4rRAtR0AACAASURBVIQSQqFQSWQlXdNrzzQtmKYJURShqipcFyAaIEZpWZ4I6rouCoUCJEmCIAhQFIXpcyR2EkGbpolwOAwA0DQN8XgchUIBmqZBlmUAgON4YqwgCHAcB7Isd14V7XDBVBLeG4HIe80FJUmCrusQBAGqqsI0TUYU0WgUACCKEgRBLBlgQhgdHcWLL76InTt34uWXX8arr76K1157DbquQ5IkcBzHiEgURSiKgng8juHhYRx55JE49thjcdxxx2H58uVIJGIAgGLRYIYVf+C2ZVkwDAPJZByu60JRFDiOg1QqhUgkAl3XfdzYW1B0XUcgEGBE3C4OKwKcKrwRiI/QSyIUhPKOW4LAoVi02U5cZKFUFAXPPfcc7rvvPjzxxBNIpVLsd0/0EzA0NMREU8uy4Lous1LSWA8cOIBXX30V999/PwCP+FesWIG//Mu/xHve8x4MDw9DFHkUCkUmDnMcB13XAQCxWAz5fB6xWAwcxyGfzyMej2PPnj34q7/6KwCe4SgUCjHipTG0gzkCbBP9jvDvBv0aW6+I0DDMEvEJKBSKsG0b0WgYrgu88MKL+N73vocnn3wSo6OjiEajEEURsVgMsiwziycAZpgBymIj6XnkfpAkCYqiMEMOAOzZswe33347vvzlL2P58uU488wz8b73vQ/RaATZbA48zyMQCEDXTXzpS1/C6aefDsMwGHd+5ZVX8K53vQv/7/+9HwcOHMTQ0CBSqQwcx0EwGIRhGG0/kwrPoz/Gr9YD998onUfXeT6dSr9etSO0US3QWj7FXvvVmrVXK6Wl0f/N2p9pfsFuxtfsWdD7lmVvTSdOR4TjdyG4rgtVVRGNhvH0089gw4bzsXbtWjz22GOwLAvDw8MIBoPMSFO9TyXP8xBFkXEcv0FFFEXIsswMI2S04TgOgUAAqqpiwYIF2L9/P6677jqsXr0aX/rSzZAkCcFgsGQMMrFkyWLce++9OProo5k7ZM2aNfjyl29FNpvDwMAAUqkMXNdlbpJWn78ffeWA9R31MxP1Ih2mKgJmJhBpK6j3nERRZCJdKBSApnl6FomWpmkiEAjAdV38/ve/xzXXXIO9e/dicHAQCxcuhK7rzN1AOhiJd5qmlQwtlcWdyaVB1kjigtXJun7jDxlZwuEwLMvC3XffjW984xs444wzcO2118A0bRQKGpYuXYrbbvsqa8d1gUwmC1EUoWkaHMdBKBSCaZod+wF7Hgvay3Cd6cRsHPNUoxYX5HkewWAAtu1ClmXIsgzLspDNehPXMAycffbZWLNmDTiOwxFHHAFRFGHbNoLBIGzbZgRr2zby+TwTDYl7EsGR+AmAOdyJG9I5oigy/dJPqGS95Hkew8PDWLFiBR588EG86U1vxgMPPMB0TNO0sXfvfqRSGYyPT0BVVdYH+QY9H2RnvGwuGLsFTIX/rpdHv8daD6ZpQpZlZLM5pNNpJgbKsoxYLILbb78dq1atgmmaWLx4MVRVRTabBUBhXSYAF4LAw7JM8DwHVfW+1/UiBIEHz3MwDB2p1AQOHRpFKjWBbDaDdDoFXdeZRbTa5aHrOrOcAmV/HxlyNE3D4sWLcfTRR+P666/HOeecg0OHDsG2bcTjcYTD4VKwgMncD8ViEcFgsKtnPi1GmGr9jz5zHeQj9mPCtcPFu+m/n0YToLM6n4RW03j8IrrHAcH0N885LSKTyeLiiy/G6OgoFi1aBNu2EYlEkEqlEAwGIcsy8vlciWjACNcziOgYHx9HKBRCoZBHOBxGMplAIpHAggULEI1GYRgGUqk0isUiikXv/IMHDyKbzUIQBEQiEYRCIRYJYxgG0wlN02QO9YmJCYRCIQwPD8NxHPz1X/81rrnmGqxZcxay2TzjfOQLLBQKzPXRlRui/GCnJ5SpUx1rusXE6e6/n+hE91UUBZqmM/1NkkTs3Pk8LrzwQsiyXHKwezpgNptFKBRCsVhk/cmyxMS5fD6PkZERHHXUUTjxxBOxcuVKLFmyBAsWLGDGkkKhAJ7noaoqexeW5cA0TRiGgbGxMezYsQNbtmzBtm3b4DgOYrEYJElihEcckWJOAS/ek+M4vPnNb8Z//ud/YuvWrbjpppuYrkeicCgUQi6XQyAQaLh41TM0AtPAAQ/nSdsOpuI5TKUBCQCLbvH0Mw4PPvgwLrnkErzlLW+BqqqQZRmjo6NQFAWyLIPneYRCIeTzeQSDAViWiVdffRXJZBIXX3wxTjrpJOaHMwyDWeHJV0dGGo/zFaEoKgtJk2UZCxcuxNKlS3HqqScDAJ566mls3rwZTzzxBGRZxsDAANMPKSJHlmWmJ05MTGDx4sX43//9X5x99tm49957kc1mwXEc0z2DwSB0XYeqqswF0g7ESq5Xy0rZzkQpnzv55Xcy4d44xNoLYplqgqvqvSTemVAUCTfffAtuvfVWvOMd70Aul0OxWISmaYz4OI5DLpcDx3FQVRU7d+7EqlWr8NBDD2HRokUstnJiwjN8EOfx63d+F0MoFGZczW8ppUBtXdfxR3/0R7j55pvBccDdd9+D2267DZqmYd68ecyFQWMUBAGBQADpdBpLly7F+Pg4/uzP/gwPPPAAVFWFYRjM4ipJUsfB2KXS9JWEQikjZQJoreGyP9C7htooz4lyJrMg8KW/Aru2cpcmf5/VqS2toZFxopavs5kRo11jR/X55Neq54Ps1vhST2/z99vN+G3bgWV5E851Adv2RDjbpmgWHqqq4PrrP4vvfOc7WLlyJTKZDCMeyjygVJ9gMIhsNgue5/HII7/AHXd8A8PDi2BZNmzbQbGoIxAIgucFOI7L0pkEQWRztJzeZIPny3PJH11DRO44DvL5PBzHxWmnnYZf/GILzj33XIyNjaFQKLBoFuK4giAgHA5jYmICkUgE8XgcH/zgB7F3715wHMeCu4nzVds0AFSkRtV6rjXqgnKMgNqd8I1ywbrjgP0xtEyHONyIQ9Gi0OnRSZ/tQJZlSJIM07RLhCijWDQQCHiB0BwH3Hrrl/HQQw8hFotB1/WSaKgwl4RHvJ7+dvDgQXzyk5/E3XffjaGhQZimDdO0YFl2xULu/9zN/NJ1HeFwiLk2HAdYv349tmzZgiOPPBKZTIZF3VAQAYWbEZEJgoD169dDlmXmfCeRl+aT3wjmJ8RamHNDTCGmTzzsTd9+P5wsy0x3KhY9q+KPfvRjbN68GclkkvnxBgcHMT4+DsdxMDExAVEUMTo6isWLF2PLli044YQToCgSstl8hUjp52L1Fst2F1BZlpHL5ZnISAm3tm3jK1+5FZdeeilef/11Fjzgj+Qigw1F0/zFX/wFksk4s34SMVaPt9lznyPAEnrNDTtpb6r9f+1eQyUjPD+YVyKCUnSy2Sw++clPYunSpcz3J4oiUqkUwuFwKe4zih07duC8887DbbfdVtKzFGSzeYRCobr304jDt3MPPM/DMAyWkmSaJpLJOHieRyqVwdlnfwiPPPIIXn/9dRSLRUQiERYKpygKDMOAoiglC6+E885bj3A4zKy+tVBNyJPG1GzQbwSrZa/usRtiqL5+Kgiw3TF74plnHCkUNNi2wxzS733ve3HccccxC2U+n2eESCUmXnvtNdx8883YsGED07HS6SyCwSA0TZskUtPkbcZFWh0/z/OIx+PI5/MsaieXK7syyIWyffs2DA4O4vXXX2eROaTLapoGURQRDofx3HPP4T/+4z8QDocmjbflMfn/aXSjhyshzqT76pcO2MvxkdGBLIGqKmPTpk1YuHAhbNtmnMAfJqZpGl5//XXccssteO973wvPahlgupYg1BY3/aJop7GWfjiOg2w2y3RS4kxUioJ8eyMjo/jWt+7Ee97zHqRSKQBAIpFghDcxMQGe53HEEUfgjjvuwFNPbWcJudWLBt1XVzrgTJqkhyt68Yz7/Z68DHWeZRkEgypuu+127Nixgzm3KeCaImF4nsfo6Ci+8pWvYNWqVT73gMv8bul0dlKtl06stq2AnPaku3Gcl2eo6zor9JRMJmGaFv7lX/4Fq1atQjabRSbjpR0dOnQIsVgMgiAgn89j+fLluPrqq+G6LvMhtoM5HbCE6Vxkqlf8bkTQft4H5cp5pSRE7N8/gm9961sYGhoCAMZVTNNkmQ179uzB3/7t32LVqj9hRhaKv6SIFnIR+H14fjGUstC7hSdy5pibgTg6OdIVRYHrutA0DYZhwLZt3HTT5xGPx5nhZmBgAMVikQUGCIIAXddxww03ML3Xv5g0k1DqEqDfmUn/t4J6E8DfjqfYusw/5Pdh0Wc6D0BF1nQvV8RqRb/W76301+l59YwN3YqgneqIrZynKFKpLKCF66+/npVtoOgRjuNYgurrr7+O1atX44wzTodlOazeij9zQJZFKIpUquuiQFVlVmmMRERyXVT72aqzH7z4UY+IyDFOYWVUvoJ8kbFYBKIoIhBQEImEGYEBYKK0p/tl8aMf/RdeffVVKIrCcgNJ5LQsC4lEAvfffz9GRkZYQSh/fVFyadTCHAfsMabT1dBvEOEFAgpef/11/PrXv0YwGGQRKBQV4omVaSxYsAD/8A9/D8OwWHxmKOSlHJGp/5/+6dN497v/DO94xzuwZs2H8ZvfbEMsFgGAknFEgShOnqa1FpZwOIQDBw6yrHtBEBCPR5HP5zExMcGc/6Io4otfvBnve9/7sGrVO3HiiSfhN7/5DSKREEt9yuVyzDhjGBbuvPNOvPzyy5BlmQVxe6K0dy/JZBIbNmxgQd8kflMkTr2KaXME2EMczsQHlHPsTNPGJZdcgmXLlsF1XSSTSSYtiaKIffv2Qdd13HvvvSgWPVGvXEDJKolvHDZs2ICHH34YQ0NDmDdvHjKZDDZt2oRf/OJRJgEZhomxsYma+XZ+qcp1XRSLOovvdF0X+XweuZxXy3P+/AEAHgffsGEDfvjDHyIajWLBggWwLAuXXXYZfvKT+6Eoni5LRaMoQPytbz0eZ599NjKZDIrFIhOx/e6JkZER7NixA6qqAgAjYAryroXDlgCnSqc7HA1U9e7Jq2jGYc+ePRgbG4OmaQCA0dFRcByHYrGIQqGAaDSKK6+8EpZlQVVlRiCUthMOB3H33ffg+eefx4IFC5hIJwgC5s+fj2uuuQaPPvooUzsSiUTdMVYTIcWL2raNWCwKnuehaRomJtIIBlVccMFF2Lt3L2KxGNP5AoEAhoaG8G//9m+sLUoQzmZzpWBvA9dcc3Vp/GEWRkecjuM4LFiwADfccAMURWIuCwoUr5eudFgRYK8tZlONfvsBu30unt4D3HjjjViwYAEikQgEQUAymYTjOIjH4zAMA7FYDCeeeCKCQRW6blYU1yU8//zz7HryrdF9LFy4EFdccQVeeumlUpmLcpRJo/vxlxaMRsPQNG/ix2IRJBIxrF17Ln73u99h/vz5SKfTrAw+FXDSNA0HDx6qCK72wtfCJRHbxfXXX4/9+/ezJN9AIMAswKqq4rnnnsMLL7yEQECBKIqsdD1xxWocVgQ4neiVUaifBNhsnM3aEEUBxaKOJ598kk3SQqGAfD7PCCmVSuETn/gEAgEFum4yUdIfkGxZDtMBqU4oFV4iC+mb3/xmnHLKKfjd736HcDiIQqFQ12hG3/sd/8WiwcLHXBdYu/Zc/OEPf8CCBQswMjKC+fPnIxKJwDAMaJrGas6QYYdiPSORSEl09jLt3/3ud2NoaAiSJCEcDiOXy1VU7V68eDG+/vWvw7bLFlyKwKmFOQKcIrRCIFPliK81llaut20HX/jCF7B06VLoug7HcZj+B3gO9z/5kz/BqlV/AsdBycUgs8lLhhFR5HHSSSchn/cy3HVdRygUYtZUnudRKBTwx3/8x9iwYQN+/eutiMUiNa3GflCJCwozC4e9bPuzz16DgwcPIhqNguM4JJNJaJrGLJrEpZYtW4ahoUHWNs/zkCQJ6XSaJQ+bpokvfOELePHFF8FxXCkWtsj8gqFQCE8++STbuIUifur5B30EOBPFNrfq78xCL7jOTEA9F0w1BIHHE088AcdxWI5eKpVi4mMqNYELLjgfjuOymi6aVgTHAYGACl0vQpYl5PMFvO1tb8V5552LF198AYlEHKlUivkJiRsahoFFixbh8ssvx6OPPubT97wtyqq3myO9ze8C2LhxI0ZGRkppU54ITKUkyF2Qy+WgaRq++MUvolAoMitqWZz1NmEhLrdkySIcd9xxcF2XibGuW96spVAoYOvWrSzmtFgsVsWDlsdcsT0Z5VORRavRhoW1UEtGr161yE/E8xzbTsofO1fer63sG/Q+1wpo7S5PsN3fa4k9/t/q+eKa9dNLv2ar7fnPob9UbIgmn7+epyiK2LXrZRw4cIDpWlR1zJvYnjX0//yft8JxbLZ3nygKkGUJmlaAKAqwLLO0B0QKGzdego0bL8HLL+9CIOBFqPCcAA48OPCsBMTw8DA+/vGPY+vWrczAwXGAYeiQJBEcR3sCeoWWcrkcYrEILrroEjz33HMsq57uiyyyxMUty8Jdd92FRCLBzrFtG7IsM5GYrvcCDWysXbuWPQsieIrsSSQSeOihh8Dz5WrfZVTue8l3MoGnDq1wvpk69tkH8mv5tw/zb9/10EMPQVEUFs5FtTFFUcTY2Bg+9KEzAZQrV1MxXZr0/tSdWCwGTdNwwQUX4CMf+Qhee+01UHoq6YaxWIzpaEcffTQuv/xy/O//bisRd7katUcgXokKURQRjYaxbt0GPP300xgYGGD6JuAtJERQsVgMhw4dwubNmzE8PMSiX+hZ+A8qfUEGpRNPPAHj4+NQFIVtp0aBBtFoFE899RRyuXzFYlaGr2ZpX9/oYYaZLkp2C/+mlv5KBWSWf/zxx1lpPr/fDwDGxsbwwQ9+kE1ukm7oM3EKyiI3DAOBQACZTAaf+MQn8KEPfQh79+5lIWqS7BVmkiQJiUQC6XQay5Ytw6WXXoqnn34aiqKwLPZAIMB2snUcBxdccBFeffVVLFu2rCLm0zRNViDYMAw89dRT2LJlC5YuXYxMJlex220tfTMSiaBYLJZETxunnXYa0uk0I0J/5FixWMSOHTsQCpULDdd85v18oXOYXfDv1UfiJ4nW2WwWIyMjpbQdjRkgiJiGhoYwMDDAxFhqp/ozcRESAaPRKMbGxnDVVVdh3frzcODAAVi2l4lOnKdQKEBRFHAch2g0irVr12L79u0IBAIIh8PIZDKlKJcALr/8cuzYsYMV+aW4VCpnTwWC8/k8XnjhBYRCAUxMpJmY6Ce8aiNXoVBgewValoUTTjiB+fmoFCPHcSgUChgeHsavfvUruC4qdNJJz7zfL/VwxOHKCf26OOnjRDj79u1jrgDS/Sjw2jAMvPe972X7QBAR0qpPE5jCsihzwDAMFAoFDAwMQNd1XHLJJdh4qae3JZNJ8DzPLIvESePxOI466ihcdNFF2Lp1KxOBA4EAzjnnI3jppZewdOlSSJKEbDaLRCLB7keWZWb9/MEPfgCO4zA+nmI7IVUTXzXR0PjD4TB4nseqVatQKBRYeXqqAk5ul2eeeYZx3TkOeBigkXGoF2FwJDZWQxRFvPDCC0wcpRWdRCvTNPGud72LWRWJ4/h3tPVzPMdxUCwW2V4PHrcDbNvChg3rcdVVV+HFF1+EbduMw9H9eefySCaT+OQnP4nHHnsM4XAY5557HsbHxyEIAnMvxONxpNNpdm02m0UgEMC9996LRCLBiIfqvtR6nn5jJFVLo4TeSCSEpUuXMi5L4jdF/IyMjEBRJBYQXgtzBNglDiduSIRCq7/fcLBjxw5WVJe4mX/3oje96U1Mh6zmIsQNVVWFrusVPjZyB9C5hYKGdevOxUc/+lGMjIwwQqV2BEEs+R8HsHjxElx33WdwxRUfx2uvvQZBENmWZF6ZiRTbPddzk6Rw++23Y3BwXsVmL0Q81fATnz9DRxTFkr4JHHnkkcjn80y3pHulyJp8XmtYsnCOALtAtRl/tqNaBCPCAFCa4EIFRyMOx3EcFi9ezCySpE/Rb2R5JJM8mfNJ7KNJ7bou08k+/vGP4dRTT8X+/fvZ2MpjAnTdKKW0ee6RcNhz1AcCAYyNjbGQONLdnn/+efzqV7/C8PAQ0/mIs1JeYi2XGf1PCwBF/XgBA8DRRx8NACzNisRyjvPSo3bt2gVVVVvPiK8n5hwuk6yfaBSlMRNRy6/p38eP9C7AC7j2l1fwWzgHBgZKG6dM5hakS5K1lEKyiAPS+TTBC4Viqdq0iWuvvQbnn38+du3aVUHUBNpjnsbv11mpYrVlWZiYmMCzzz4LWZag62VLKEXf+F0mftGTOD21SQuI302zYsWKipL11UaniYkJtnDVwhwH7AJ+I8PhAn/spn8x1jRtUoFZ+kyhXL2AJIkQRQGGoUPTiti48WJ87GMfw4svvsgCs6nKGu3zTsTjFYvy9Lp0Os1iMX/84x+XLLB6BSH476+VjHvy89EipesmhoaGmM5LCxJxfFmWMT4+DlnugRX0cJpkvcTh9Fz8BOaPSgLA3AfVBEj+sV48BtqezDQNCAJf+mxh/fp1uPLKK7Fjxw4sW7aMEZffuU/jJAOIKIrIZDLYvHkz5s8fqHCy+ysttBOFVB0hRkaiWq4LWsTGx8fRqPlJWY7VE+pwmmCzHfXeRa/UA3+ZdX95PerbI0p3Un+94oAURC0IAhP1vJhSAWeccQZUVcVNN93EdtP1b9aiqirLRKcyhz//+c9ZGhG1S9ySREv/VgHN5jq5FPyiLqUkEYcjLhkMeuF2lDPZkhFmjthawxv5OVWv9vRdL+C3iAJgeYJknNmyZQtCoRDbiYgMHYqswigViyIC0HUdr7zyCgIBBWNjY3UL57YLv+HNv0AR2mVgDUXQN/JEeyPCL5KRpa/aKFGL+LzImO77p8JFHMeVtizzOKssy1i9+ky2dVk6nWYuDVVRmfObImwcx0E0GsVpp52Gn//8EQwOzmMZCeS79Ou5rfpRiUOTW4E4HWVKAGB1cWifw2aE35IOOEeIHg735+DX+WiS0j0T1/FbOgGPWGib6W7hf74UbSJJEi688ELkcjlIksTcAMT5dN1ghJfJZKAoCnMrHHPMMfj0pz+NBx98GJFImFko/eJiO0EM/ggh+lwoFCoMLPQ9WXaTySSrCFcLfGVO1UxDK8vqTB377ARNMH8cKADmhK/eXo04YIMW6xy1QQm5ZHU95xwvU8LLdBBYepMsyzCt8qadLrzdbylLn8YYDofx6U9/Gr/+9eNQVaUiMdZ/f60U1KUUJSIyRVFw8ODBSXoh+QQNw0A8HmchepXPxANfOYFrixit5gXWkn+rV5hyoK/LRBy/GFCOyC+PxftcawwuOllAmq169X5v5OfrJETM/3x6wV3baa+WNbOWXkOfaXKTk5nEVFmWceDAAQCeFVOWPd+e5yKQAHAwDBOiIMI07FIuHg/TtBix27a36YsgiDAME7btIBQK4dxzz8Po6CgkSYYg8KVUKRu2bcGyTHAcwAtAQcvBdZ2K/d7JJSDLMubNm4dLLrkEzz67A4oiMe5EUTbVz6Cay9Nnqu9Jfj1BEDAyMsJcD/5IIArLoxIZZXC+vzX3B5xJ4Kr+ziy0SjQzXXStFdFTTYwLFy4E4HFCCqh23XJG+MjIQVa4lud5BIPBUh6gAMf20ndCIRWFfJFFy9AEpSwFAFDVABRFwcaNl+H3v38OHMezituK4p/MLmRZwr59e3HiiR/AoUOjcF2HOcT9GRC5XA7HHnsszjrrLDz99DMIhbwygWQtJX+hX3T0ExIdxMnKZfeB3//+98xQRJkhFPRtGAaOPvroGlXRypLAnCN+ijCTiLAZdycuQNzEcRwcc8wxbMcjikDxT9bdu3dDEAQWqE0WStt2IUoCwLkoaEUoqsx8del0mlU8o4wEUeSxfv0GvPTSS1i+fDkzZOi6zlKJKFVp9+7d+OUvf4krr7wSH/7whzEyMsLGRwWXHMdhgddHH300Nm7ciIcf/jlCoQArCEWhYs0imSj7n2I9AeDZZ59FLBZjxEnlLADPJzk8PFSRolWNlqygM2nyzFTMlmfUqmhK4iER4lve8hYAYBY/4hAU0Lx9+3bG2WiTFnKUk97kiWo8a4NiNW3bxvj4OOLxGC69dBN27txZwU2Im0WjXpVrVVWRy+Xw4IMPIhQKwTAMXHDBBVi3bh327dsH1/X2dwgEArAsC8VikUXJDAwM4Prrr8dPfnI/otEwLMtCNputuO9aQdj0G33n3aONAwcOVITZkaEIAAYHB2FZjbdYm+QHnC0TqRZ6qU8djuhUZHZdF8uXL0c4HGb6D2XFUy7eo48+ClGUYBhlgwMZVIiYvTL2Nqs4TVnkqhpAMjmAtWs/ip07d2LJkiUIhUIsy4AqT5MOmslk8IMf/ADJZBLZbBYc5+X6XXDBBTj//POxd+/eUmnCIsuGoJhV2ij03//93/HTnz6ASCSEUCjEOHctPZC+o3EQt9u5cycEQWCcmZ4HEegxxxxTUYOmFpqKoLN1Mk/VuHvZT7URpd2jX3BdF4lEgnE78rm5rpdpEAwG8dxzzwEAK1BLNVR4nmN+M8oUiETCKBQ8HSkSiUDXdZx77rkYHR2Fqqql8C0OAwMDLMdP13WmV913330skDoUCiGVSrGxbNx4MT760Y/i1VdfBVCO8STCJWKMRCK49tprsX37b6EoXulButfqKCAiSEVRkM1mEY1GIYoitmzZAsdxEIlEmOhLHF/XdbztbW+DosiTYmj9aLg70hzaw2zPGPGrHH7xk1KKVq5ciVwuV8HZiBvIsoxHHnmEESngWUU9l4bty6TgSqKlhGg0CtM0ccEFF2Dv3r1Mh0wkEnAcB+Pj4wgGg6zcw8TEBH7wgx8wyyK5HGKxGCPGffsO4PLLN2HNmjUlC6rEFgky5tACsXTpUqxZswbPPPMs5s8fYJyqetcloOwjpTQmWRZxzz33YHBwkBErWVbpwtRI5wAAFclJREFU3JUrV0LXDei6XjfYe84I02PMdiIEJrslCCeffDKrh0J+umAwCMdxMDw8jNtv38wqZLuuW/IdehOZXAeiKEKSvJostm3jwgsvxJ49e6AoKjNy0PWRSASO42BsbAypVAq//OUvMX/+fABgib1koAE8Ljc4OIhUKo2/+7u/xdq1a7Fr1y4kk0nk83mWFkVjdxwHK1euxOrVq/HYY49DliX2vV9vIz2Vomg8jv88HMfbcZfEVbLqEvc+4ohlrH5OvYiYugRYy+Hazsuja6qjzcvKfblalp/d+82//ogFv2O4l36zRvfXan+dntcv0bHTfuicar8vWTSPOeYYVlKCvqd36DgunnnmGaRSaVYQqaxHOb7arm5p45QYLr/8cuzevRuxWLxkyCjX0SRxlVwEP/3pT1n4GZn0iWApMoYSZiORCHK5AjZtugwXX3xxqfhSiFlQ6Tqe55HJZHD88cfjiiuuwJNP/oaJjP6oGdI/SRSWZQnf/va3kUwmmVuExilJEkZHR3HSSSdVPMMpLco0G7nAdIrcvdYj+4VYLIqVK1ey2pcU8ZFKpaCqKoaHF+GrX/0qbNthE9O2bQQCARSLRVZFzbZt/OxnP8O2bdswb978UoymzTbGJCupYRgoFov41re+hVAoNKlmp59TUwQKVW3zxpXGxo0XY926ddi1axerXkYGGkVREI/HkclksHDhQnz2s58Fx5Wz3/0iJ+37F41GUShoePDBB1mpi2w2i3A4DMMwWAzrO97xDhQKRbbzble7I83pg/1Hrzl6P2BZNtatW4eJiYlSoqnnRKcK0qIo4oEHHsTBgwdZCUKqbEbGFiLIRx99FNForMTByr4zEj01TUOhUMB3v/tdLF48zJzZZASqJkC/YYieQzwew9jYBDZtuhTnn38+Dh06VFFGMJvNIp1OIxKJQJIk7N27F3/4wz623wNZPon4SLe75ZZbEIvFmPQWi8UwMTHBrKxDQ0M47ri3MNF1cihaGRXfNuJcnbxc/zUzlYhn6rhmIkRRwDHHHIN4PM6IxDRNlg9HIuIdd3wTtu2U9D0v9Iusg/6tmk3TRDabYwRFkTTZbBZ79uzBz372MyQSCeRyBeb4bwSK0CEROJfLI5lMYHw8hU2bLsVZZ52FPXv2IBwOMx1VVVW24SYZZ6jYr6ZpbGHxV1D70Y9+hEAgwKqdUanCiYkJjI6O4pxzzoFlOcxt0pEVlNDtBJ0Nfrleja9bvW463BDtXO843jmbNm3Cvn37mK5WKBSYZTQej+O73/0uXnnlFbZfQjgcQqGQh2kaCAYDsG0bJ598MkZHR7F8+XJmOSQRNJ/P4+mnn0YgoDCuR5zPP2agrK/StcRxiCsbholEIo7x8RQuu+wyXHjhhdi9ezd4nmcGFHIjBINBFrlSLBYRj8cBeOUM4/E4eJ7Hxo0bKzIuyHKqaRokSUIsFsMHPnACUqlURQxoR5EwbyT0epGY6YsO0P4YvVQgDqeeejKLTiHHPLkJEokE2+WWfG6apiEajUCSRExMTMAwDLzzne/EmjVr8Ktf/QqAxw1HR0dRLBbxve99r2St1CHLItPHqsfuN/ARAVMxJsMwWK5eLufpZRzH4dJLL2HOetd1kclk8PLLL6NQKOCrX/0qALD78QwuMnOub926FS+99BLmz5/PdEiKO1UUBePj47joootgWTbTd/17UdRCzwlwNhpgpgrT+Wx60bdnaLCQz2u4+uqrMTIyAqCcqhSNxJBOZRAIBDAyMoIbb7yRWR8LhQJM00QikWDB19de+w+4/eu3Y/68QSxetASrV6/G97//fSxYMJ+FrGWz5Zqb1aheQMg9EggEWNC0JElMRPZ8iylcfPGF+PznP49jjz0WQ0ND+Ju/+Rv88Ic/xOLFi2GaHvHIsswK8Hr1ZwRs2rSJ7S1IibmuW67yrWkazjzzTBYx48W2iszoUwu+mjDtuxx6D7fqs1vj+x715HOVTCWqfWtT1WcvQOFnoVAAZ5/9Idx229dg21ZpN1kNwUCotNpLmDdvPr7znbtw2mmn4Zhj3syyDbyCtm7JKGPgXe9+F/7ve98D2yZjCpDLeRM3EvEsi6ZplPRHo8IAUw0iVMsqW0O9YAEDruvAcVwEAioMw8S73/0urFr1dqiqAl03mO6naRrbdSkajZbqi0Zw9tkfxuDgIDPQqKrKdtF1XW/vjKuvvhqiyMMwyiIpBTRUpiSVwXv3UZn2U88/RlYgv0xeFgWav2jy7XifXeZH8tolv5IFWZYgSSIMw3OwUu5Xtb7STA9q9Fu1f7Jee93oXe1fUy95tdWjV+OofS3l7ZHj++qr/w779+8rvTv44j1NaIUijj32LVi9+gxkMjmoagCapkNRVO93TWP+wXy+AMsyYZpGqfqaVxGN9hfkSmXr/TqgX/Sk/71zKNpGhyDwpXnjsL9eaJwJw9DhODay2Swsi7iZw8pJUEBBOBzEpz71z9i3bx9UVWW/ua47aYffM89cjXxeY9ZfKtRrGEaFFdT/TMV29tcjcy85xklW9lJWml9PVZHJGkZ1R7xN7g0WskTsnFYNijb3K7KtrOrtrvydcopWr2t+XrecqvUk3JZb9C12ZBmk/R/e//7344EHHsDjjz+OxYuXQCt46T2JRAL5fB4HDhzA8cf/MU488ST84he/KLkFxpFMJuC6XsAyEbVHHDz8z8Dfdy9AybeFQoGFsvmzNyKRKDStyAw44XAYmzffgUceeYT5IWksZHQaGxuDpmm45557YJrlIr7+cheN3vuksoTVN+8HOR1VVWUmWU/J9bb4bVYbxL/l1MDAAIrFIjRNg6ZpkGUJqurtIlMsFplVi8qM+yNjWkEnxNTsmmYToXtRr/XFcDL6U5rDf8+iKGLevHkV7+GGG27AKaecglwuB1lSIUnebriGqWPx4sUYHR2Foig4/fTTcdddd2FgIMlCzfzipL86gl/KajaB20E2m0UwGGTERBExlDuYSqUQCASRz+cRjUbxX//1X7j55puxePFiAGBES3phIBBALpfDKaecgiVLFiGXK7B7AcrRL43Gz2UyOfaEa1GtKIpIp9NYvXo15s2bxx4U7TRDFqLR0VFWJrweaMMKctKqqopkMlkiOo2FqFE83cTEBAAwX0q/9bVuCbC79rvN/m+uL7c6fn9YoP9aSfICqD/zmc/g2GOPZREi27dvxyWXbMTw8CKvPKDAMS5AuhXlB9555zdZZrsgCKwNqiLm79s/F2vpfa3cj/8c0t+IiMiXRzGinphcRDQaxje+8c3SRi6DLJCAriN9NpfLYdmyZbj99tuRy+UAoEJC9NsZ/OOvUPEaESA99HQ6jTPOOAOxWIwRDpmG/V7+ZhOYBlIsFhGNRll6Cb0sVVWYT4gInUzL3sraqPhP/9FfAgRmighaLzOcCt/u2rULDz/8MFasOAoAYNsOvvzlr+Duu+9mizQAJtqFw2FmBc3nc7jvvh+zXD6aB2RJrC6U22jM7RKgv2x8IBBAoVBg+YK5XA627W1pduON/4p77rkHRxxxBLtvAqlcJPF973vfw6JFC5HPaxXxr37uR9JbrYWtLQKcP38+K3TjWafKBXpqGTWqUb3ZPXFPIjYyFVMZgdHRUSYu5PN5BAKBpg98KlDvxc92F0w9cc+v95DfL5FI4Gtf+5pnSChxrjVr1uDAgQMIhUIs9YdUDuJwPM/hueeew6233oI///M/Zwmt/h1qa/Vdb7yt3BOBHObxeJzNp3Q6DVEUEYvFAAAXXHARtm3bhuHhYQDenJ03bx7LSyQOt3PnTjz00ENYvnwpDh48xOwbQKVhqFxkrFya0D+mtiJhiF1blsV2uaE8K//uMvUOjuNY/QyKrSPRJJfLQS8aEHgRoiBh5MBBRMJRmIYFx/Z8TDwngANf96CH4y+62s5RfX29w/8i2umv1fb7dXQ6PrpfKu9AVadlWawQ6b773buxZMkSZLNZFqZFizS1pesGVq5ciSuu+Dg2brwUuu5tI8Zx5cK67VpqWwVZaalkBGXcx2Ix/Pd//zeOPfYt2LVrF1asWMHUK9rujP63bRuvv/46vvrVr2LpUo/4kskkU79ozHS/dB/1YkEncUAaKIE2uTjjjDMwNDTEai76FWjynTSD/8F6lk+TZRlHIhG4DmCa3sv0R8V71iq5tLLUbR3VlQvbfYGdcjC/rH+4oJa4BIBtilIsFvGTn/yELcjk68rn87j00kvx8ssvY3h4mM0XMsnTZKQsimKxiA0bNmDduvOYq6PsmmosVbXLAWn8FFcqiiLGxsawbt06FAoaWwgoaDwWizG1h7I4Dh06hCuuuAKnn346a9u/T4Wf8wHljHx/PGhdDuhfsQCwCIYFC+bj7W9/Ow4ePFjxIDmOYzF01StXPb8TDY7kZUohKZf8BnieYzvkcJy3ZVVZpq53TH5R7XLATtFuP73uv1fj8KMWB+I4r9bl/v37ceqpp0IQvGv8uo8gCPja176GRYsWsTQljuMqElqpL0VRMDg4iFtuuQWnn74a999/f8l57UKS5BJXFGHbDnhegG074DgePC/AcVxYlg3XBXieds514bpg53hZFl6eoWXZcBwXoVAYsixjZOQgPv3pf8Ypp5zKAgNs25tj5J4gfyfZJEZHR3HZZZfh7LM/hGw2yzYk9RtY6N5IlfIbYGo+Uz8HpGzhcDjMtqOiFU5VVZx55pkYHx9n1axyuRzC4TAAIJPJNOWCTY00TSTipm4Irjs3QbPfm/XfjpukFuqJKa2i3/2bpolisYhFixbhhz/8PgqFssPZ03NsKIoM1/XGsm7dOvz2t7/Fm998DHK5HBKJBA4dOsREWgqa9nOXwcFBrF69GmvXroVpmqW6MSEUi0bFZpmkd5JhCADzL9MkJ0bh5eR5PuXt23+LO++8E9u2bUMgEGC1ZWiBUFWVGfz8Otu+fftw3XXX4aSTPoBdu3bjqKOORKGgTaKXRqjp2vMTIPneyFLpOF65b3I5KIqEb3/7LuzevZsVaCWRhFwMjdB0lW8iUTSdoE2a75bLNBN5uiWg6UYzAuZ5HqtWrcL//b/vgabpjBA8McstuZe0kkXbC8T++7+/Bj//+c+xbNlyVlKQssxpnlEa0sDAAEZGRhh3WbVqFU4++WS8/e1vx8KFCwAArltWU/ychUQ8IrRi0YCqenrZ9u2/xUMPPYT777+fZTlQ4WBSpXieZ/Gf1cHfv/3tb/HEE09g4cIF+MMf9mFoaIi54iRJgqqqjNs3QlMCpIdM5lra1NDLqZoAz3upG54lk3QETwT0tv6tHe/WK1A6TD20Q2D9UNe6tRl0O6ap6D+fLzBLOE1gIkKO88Q34gjka/vxj+/DP/zDtVi4cCHi8TgT3QBUqCH+Ir00uakeTCwWw/z58/Gnf/qnWLlyJRRFYWXnRdHLstB1HalUCvv378dLL72Ep59+Gq+88gqCwSCWLl1aeka0NYLDODEFetDcdxwH4XAYr7zyCpYuXYof/vD7MAyvABTpj4VCAdFo1AtAKBkh62W9l99PCwRIHM0wDJasSBHdhmEw0y3HcSw0ieM4ZnZu7UXXetOkG9SfRc1YfLccrlsO1p3VjhT3zh3x3vPvfAzNnh/56yg0UBRFVl3a73IgcS4YDJYyzqPIZLLYtGkTfve732H58uWsxgrHcYDruaZclG0L1Jd/S7BIJIJUKoVCocA4FxlMaG8GGpeqqlDVcqEn8v1R0i4ZkihD33VdJoKmUilks1msX78eF198IXK5Ans+HFcuWKxpGnOT0WLU8A01I0DKbga8eDlFUZh4QKseZT6TsYZqIJJxpp0XWvl781CqZhO8WX+NrJW9MIR0S8DeBjSdEyBVIOsUzRZQipsk0dEwDCQSCVZ5mvxdruuyqtYet3FL11p48MEH8Y//+I8YGhrykllLer9lWQDnsv0aXNdlETKmaSIUCrEEWn9ZRKBcQIwsjtXRXHRv1A5ZZkkMJYLiOA779+/Hm970Jnz2s5/F8PAwEy3pevKB+0vmU7EmWpjqoWUR1J+S7wWpRljlKUrdJ/GUiJGUY9Zw2waP5gTYbIK3S0AzzW3gVmSmtH11X8RqP6gCWbFYRCQSAQAWWkjES5IS6XjeQq7CcVxWlcw0TXzmM5/Brx59DKIoYtGiRR5R8JVuAn80CZV98IeOkfhK3Nevu5FhBQDbr4HGT5EsxEy8vEOvPP3VV1+NE088ETwPHDx4CMFgkN0z+QLz+TzTOUmEpcWiEeoQYNYtn1B+AFRijW6Qbori5+imqB6+/4GxxtvkgM1E0GZolwO1S4D9N8L0NxStGVoxwpABheqlEGeiCehfnMkC6bkAygV+PQ6qI5vJ4j/+44u455578KY3HY1AMMBcAJqmsSK/5OYgAiJuV+1z85v6/cEHtm1PqqgGeIS5e/duhEIhXHnllTjjjNPhOGAirp/ASfrzsvuj7Hvqm6q+NXw7tQkw43ovbnJeWbtcrFYoUz8NI73neLXzIOn/qXLsTxU6uZ/qazptw7bLRZwCARU33PBZ/PSn96NQKCAejyORSLDcUeKqfrGzVqwlcTbSUynOmPQ9YihjY2PgeR5HHHEENm3ahHe+cxVM02Z+v1bR7N4b/U734SNAwPPLd06AnZ7Tybm9P79SBO6VY3wmoxehXu20QcYS0iEjkQgmJiZY7CgAbNu2Hffddx+2bduGsbExZuyj/QT9fRIx03Om6BYqzASAFY0iC+ZRRx2FE044AaeddhoLEqD6plNJgISuCLCVc2YrAXbSfvt9Th+mmvgIpKtRmT+e95JavVw7G9GoFxRdLBZx6P+3d/W6DcJg8ECEgsRAMlbKGilvwpOz5D0iITEA3cpfBnPG0FKwAy2V4gUi+SdYOmzf3feRprjdbojjGPf7HUmSDLKlq6QPt8fcmp5OJxyPR9i2jev1iiiKcLlcEATCLFKWNbIsQxiGMnHUVNoI0+f/FQAuqbcVCP8DANfsZ62ylslZtx8ChAJ+nufwPA9BEHRUft2x6p+dhigiJMpSpKYoig9kWYY0TZHnOYqikNqh67pdWsF3uQU9n8/w/TfUdStNI3TOcMy2baUOOafj6T6/BgDlT5gAcEn9LVa3rQFoOo5p2dqps1YxHYeWNXHu86WWRrb0cHA7D6glYwkpdalEn+M4cJye8GoawLb7a1U1kplX2VmmDyQhw3MjXwpTXzAynYddAXAP/f3cdl4G2RqIewegSf9qGwKPkRAU2vu09JAZyngmpMOETOvY0M176tBkTMmaAkN3F+tQxqCIzgxma87HC4Babf8egHsvzwKQ0TW+70vLF6l8AQ7BxjNAm3Y2BruqUgLLd58SG5sqeF9V1UATpAgvVtR5K5nufGgCkH94PwCca/MsIHSdOC8A6gFwKhaPkoBlWdLCJYgUEXKknhOpA44ZT65WahAvAcaz3XjFAzDYZnKlBPAldeAa87Fkvh7v/Rkey1LYJAAAAABJRU5ErkJggg==;" vertex="1" parent="1">
          <mxGeometry x="373" y="435" width="81.66" height="70" as="geometry" />
        </mxCell>
        <mxCell id="-RUZOzO9tPdPvZ2JyVpO-14" value="" style="shape=image;verticalLabelPosition=bottom;labelBackgroundColor=default;verticalAlign=top;aspect=fixed;imageAspect=0;image=data:image/png,iVBORw0KGgoAAAANSUhEUgAAAQEAAADECAMAAACoYGR8AAAAwFBMVEX///8HSmv2kh4AO2EAPmMARmgAQWXt8fPJ0df2jAAARGcAOF/1igCJobD2kBdFbof3oEr838kANV370rHP2d/2jw795tGfsb38/v7w9Pb+9/Dd5ur/+/dRdYxXepC7yND83L/3n0L969r4qFivv8kYU3J4k6T6yZv7zKP5tnf717f6wY33mzb+8+ligpalt8L4s3H5u4H4rWP2lyuEnKwzYn0WUnE7aYN0jqDX4eb5tHT4plP6y5/70au3wssnXXpWNZdrAAAQn0lEQVR4nOVdaWOiOhcGQ1BWZxgsUKt0Udvpgl1c77wt//9fvQREEhYBDQ3OPF9679RG8hBOTs5zzoHjGODl4vH+6fXu5vmj0/l4vrm5+/10//nzhcWlfD8uHv57VlVVGgx0Xe9E0PXBYCAF//r8+nDB+gKr4+rz9f3tV60/ubi/k4K5xxPPQg94kP48nQcLF4PgNg7UTtWrvbp+DWZXPHmcBlV//3XZ6NVTwK0aTUaXKlHw87+BOqgw+xgDSXq/vmp6EifhZn83pZ9ln728/6g1/R0Jqv7WYtv4oiaXWkLB7X9SpcWfuxLeS+llhZ8YAx3puviDF3dS/dufQJeeDwzOEgQDHfW64GMXf9Qjb3/rOfgpEZeZT8HL3cnzDzlQb26/eXoVkGKgoz5mPnL1VjL/0A+KoJd8Uv3dus0xzUCWgms9/ZFkQsFeJw0+bu7e356e7p/eXt//PHcCZ+GArzSQHpjMsxgZBjrqJ/77y3c1byLR7J/fH65v0zf15fbx4feNVLhvqDft2hqzDBAUPA5yN4DA5715uj40k8uL+z9S/u6ht2sZ5DDQUfdX+Jq3APTAzXus8jhfXr/nrwTprkXWII+Bjvq/8Hcvzzm/lNS7x+pe7tWvuzwvclD5FNI8chnoqPfBr66z90+XBvd1n+KXp0HOQDuSW4B8BhAFT5knQFc/6h2iY3x2svup+kp5JseigIGOlH0C1BN8usePzHDSDb1ZnIIiBjrpmyZ1jrv/MT4zu8rgoxX2sJCB1NVK96d+U9a11Dtt8AyqMaC+07hdtzcp06LrLTgnkAw85/s/g+xh4Tg8pHYFfcCeAoIB6fEuhwKVov/yckOuuRZQQDLw6zLzUOjkOeFkvJFPAnsKUgxwFxkvgPYV/kpRoDPeEdIMcJ/kBZaHT2vjljQG+jP1b6iFDAPcUypqRN+DvyQN7uAP9W+ogywD3CtJQTUdoRaubggKpDfq31ADOQxwd42vgqsfBAWFAdrvQB4DHHl937EKGDqHuQykrq+ioFYLlx+4OdR/UP+CyshlgLt6bpyCF3IRPFH/gqrIZ4C7JM+GTVBAeh4NfEFFFDDAvaS81waukPA89A/q41dEEQMZ57CBHeE38d2snoNCBtLeaxPr9Bl/1FRGB4RiBrg3qWkKiEdNZ+Qapk7HxO/+pGI69B+ET/zbVTYpBgQDg9+/cDylgwX0VwEej2BkDMkYEVJCE2SiJfqA9kmWeA7U02KxR6JipDReBNQN9gNmb/UO7dGroB4DDZzlbzBjI7FYBD8LxPEiUE+Mu2C9CLJRsYNroAFj9Y6ZGybH5FpPweCd/gXcYlfAxCd4rLMIGnCNOe4VWwQSC8fwU5L0ahiojfjut9g9GDAJmF3+7/1HJbxfN3MB79h2oLc7B7kh4NY4J5vvXwB2RtTvWF8ME/zCtgOpFUkF3w6cgX/zMfidbIhNuBxnANwWDv7J3YBr2utqP96wx4CddFAJtu04TjeE49g2rWGxQzqreGEZukN3rnmj5XTFiwJQDMNQRH419fvjmTUxu6dScYXvBm0zBM52PluvREUQRFmGPOQTwACyHDAC+PVmbjonfAvmGbfKEDg9bS0rggjxeecCygIQ/dmke+Q3PSSLoD3J90NrHcyqdO44DcFyWGrmMV+GHRAH/9GeyVEYWlOj1uwTFhReG9b+vqtkM9DbkHDc6xvCMdOPSTD8eV3biMkzUiNzqoOJr8gFc0OGTxR2EEPTmP9BQdTqGUbMI1AZpxvPeZCZFgwMvgL46XK0WVjWfD6ZfH1N5pa2Gfd9HgAg5DAmCIs6HGDnQ0by2Q7uND1/WQTKdKQFm37+hJyu+WV5fmA00zSIslX9iy+wzYCJdhSh21eI+UMRiCPNreLwOKblwfTWIfiVNwasBJyhXzwhbiOy6jO3jkWzTW0ZuIr4GIpW8W+vEks4+H3MxdPATMEXP+AXx+zswTZK2FEwrshhEiobMCpBsvsC9ggb497RI5kbA1sI4rSan/hjzwCrs5GfXLWsbI71biM4moiNBisNlpwMGOVar/dLFyreafNHsGfJniJPqzwIWKSMiYo+E5JVe5Rjn8GwD/YUjCp8Hg+SULmAenCN+GqVBbVB5/u9EVRwDLCcHQZusZ3sgC7FYYfTPQXlz9U95hRSvIaK0OJnQK5/qjsEZ7qzLqJX+lmMge9fA3Z8q4Qt5ZG78eIyShcB06fga2ezlAn1obc7AyOWWoInlpbQi9YqrGKy62IWOQawX/ZBbDf8/sRCf7cE6GyDJLq7RWCUfRDziL49SOTs9oEVtfA/jnVkZJQyG4t5xd+uoHejnQCuGxl9ET1ioOycgZ2Mvj1U2jADYiUGrhKf+PvjAzEDzTwFY1iJgReWgsGOAR40YQntXdChjAE8SvbtccKYAXncwOCaWI0BPFL67UmFMQO8QvNQEGEYx53KGMCj5dSvogx7Bnjh9MAACduHFRn4wzJAkjAAq4VzKsNe7uMuJQxgqhmDMGHCAA8Fmtaw6ycx0xIGsEwiBtoxxgAPjRoqRwlcPPhewgCmnjPIH8AZCC61TydG4HgKMexhBu4w4fT7c0hIBngIZqdkg+xgyaSIdpgBLIuGRR16ioHgMC9qp1lEe75Kj3mYgZ9sNbOYAZjcNVHwjjeJwwWP2Va5CgNYcIBFGlF8Luh7+/g2Us187ZiYmTPp4/qpuNxUORtiWgGLnNI9A5xmYNovUk4XvVqnpe58DIjkE2UUu8UHGcDSCZnkFScMcD1ISr8yMNaaW8kwbiczPpV7IytzrhIDWL0Zk9xyjAHOnqUzaKAIDN7T3G0hD8OetekDlHRH/qEyRva0AgOXePt4FvUFOAPBfMbZLCKURQMM6I+8mWZNvr5cBJRHM/P6vmAAMZtPBIEfzbkCA5hUoDNJricZ4DhzDPIzqeI8KoDlUuUnW0LFjyPvFRhgXXOZYSB4pr16qZSp6YvKKJlvOQNEySOTpOIsA8G/WUsjL0OsHKLiExmV5QxghVZs6g1zGeBQPsxIAUUJg/mQBWO6SHkRpQzgS4BRM5ICBgI47mxpZNPkcicfbBnQm2dPVaUMfLCvtStmAMExrc3UUECB1YNhtqUhjDQ3mb3p8YKvRc5UGQN4z5tDrxFpEocZiLB1Lc1br1AtAQL6oQQ/BJFfb7RJqrRgY6BCBCFSossYwLpfMWvWWIWBGE53uDV7PbfXM7fbYX6a6QwdL9ByAWhVlDCA9/xhVnJbh4EKMI3AKvDLYDsNRzzMANF9gFlnLsoMeDIvj21u6EPe2JYx8AOrO2fXqJEyA8HMBWQEXSHMmzjIANGKhl2TQrrKqb2CcIn+Y6vw4uKwcnpLtCNiV2EVMzClM1x/twYsMVwD3oEICd6ajVU2MUIcJVPo5FEFyx72u9wkGDWwA4eU0/+IpmgMy+73yml5ylul4QCKsQnBoHI/XAlFDBAtGpm+1iNRTo/PJ8fxZcSOcpfrFiunRCsklr1aMQZoyYYTQZChrPjDQ8op2QeUZb9eQjmtWAtQBsfy1psvVLNQqJxeEe16Gb/aBlNMZJ5mWq2zTOKuKQbIfsADxv1XCOUU0Msr7fHFyinRFpt5B39SNaNRX4Fgzw4op2R3eObV5indUBY1Ckllc55QHkgGyI54yXvUWCGrnELrRA6yhZsEA3hFTUdi/3arrHIKBWFxvEl0rFUy/ziuRDCAd8EdMPUEIuxPRmOi3q4/P8oguJ6BDSNPvZyMSixfQv9oQdON5HRMGC8oGEurnobuTMaAUFuEtZ13Ok7eFNKO91ph8YEvMi4MRQV6llnJKHRdra+QEkNYc5vHwL7IWNfbQAARIXE8JVN7rojrzbxXUHoebHvO9ksb+0pGZlL6hXHCz+gdZ+zfZhSBjBGZ6zQHUZ8VBfr9UDh13Z6J4LqTCepAMBWAkCMpCKvIt8qPEV13JElSn9tBQCZK5uZwEH4AyiJSTsEOSDotUk7BKt5Qi6Jk1w8PrXkXejZO2Bsd14ZlB1FZJr51lQwK1siLlA41qBxHggzEDb6DnCsDAcyFbwj1lNNg7xA2qameMQPoN3OPR2auAg3IWArrnHZM580AwjDY5/nQ3MMi5VQEAPqb+XbvN7gjwVjNIpfy/BmIPmLOrU3fX8lIL42SaNBuEHhAK380s9wh7izYoU8BxWjSfwkDO9hOdxj6AQFc10TSaY6/6KHxZOQSovD738VAJfSMYD/0x0hAR9rRP8gAUk43KEgIecP8JxnwIS9WVU5bAroM1FFO24I4RkRPOQVoawhuvlCinLYFlJVTSwhM4NaxFJ43guPxLmP/LBhA9osCnHAjRG2pxBHHzYUzYoBW4XFvd7iW+S7nxDHz82AAriiUWHFILAKiLCr9wC3eC4fnwQAvL+kU4NuTmRd2tvP2Q58JA7xMSTyOYPcLldN2gVBOBXr159spJpydDQPBnrih1IpCI6KNZ8QAL4pzCoO6U3LUc2IgCXQfD3OZDjefBwNYrfzKOn5jtOf4/POU07YhZgBXTqGoeNXqDNMwZyJWdSj7ecpp21CgnMpAGOXUjByC3dtMiXa9oJ+rnLYNB5RTQfE3k2osOKY1hmSZnlyknLYNpHJqpCpHZUFZoRKaYlfJRkWnSzmtnEKwPs84YY5yGpYSiav1OBROze12OwywNXsuat7uQ5BXdAr4Q8ppu5BRTpdGXnUZhBAJp0BRIuE0+FlYdArj+Z8nA8E66J+inAb7yDLxrc+TAaScBifco6aPGp7jwaZzZYBDyukq7/k+OP3Aas5SYZYzZiDA1hrzoJp+jJRT2Lfiu+/sxaTzZoBDW91ks4YKypfPt3moJB8o4tKbJz0a5ktUghv5EWfPQAh76Fqb8Xolh/tA2H8gKjs1xNVy5Flkgwq7HyZUysoX+r+/g4EdbNsJvADX/UJwXdMc5r7cDR0vwvxUJJr9XQxUA+oCLyw3wTMDfe6fZMCTeXEWLJg1DDsg/4MMTAMTgH72QKianQUDVRtrV4K94nfKKTgb5dTZ7XKUlNORHL2uYCHzwnyvnDbSEpwadiVxgJJyCgIT2BtqIFJOd3Gn8vb9LLG7TZSUU5sPdgGAQkXovQ075RRCKmM3hQndls3mrsJE9J29ckqJ3aYQXyYt5dScKqIoGmMnUU6NVpuB/WsWqCmnXE+bWehY4MXcLumM2xi6cWtGusoptw+/G23eC0NYMQWQUv05wnYVB9sqvMqGOUb7yKBBTTndR50hT8e+NAp7uqdAlGkopz1MOW3ktQDU0cU61YLpycppP5EdYAMt8RtBN1kFYZnQ8SbR/lpjbS6h0HorGMMZ4Sq6KHi13vC5hzkjXpYr87Tfk9UkFoRiJgPec+utBNtcTBUisApGZ2AEMbgyqRHIQFxqvWos2KY1llMaQ9iu97xgz9KCGRQBmG4s8xANSDn1QabmFBrjVh8IC9D1cl75jeLhxhQJp27PDGVTJJyavZ61mI3D9o057XqV5VlsgjkYFjWqRcJpqJjuACLlNO+jwfPTP5stIAfDBV/QsbgaoCB657QD5MF2xwLILykunz5Yz89rAyiAMxnzdQtvkdlcW3TfFMoUwQY3gpmO7AWTR+16/dlx+Wethr2dzNaCAgQ53+aF3XoFRfE9rff3zT7B0LVm3pIHhqHslNOo5tQw+LU3s9xtI6/FayPs7nDb67nuF2rXG3gGrbrr/wfHQEUJRiTD0wAAAABJRU5ErkJggg==;sketch=0;imageBorder=none;imageBackground=none;" vertex="1" parent="1">
          <mxGeometry x="556.11" y="435" width="91.79" height="70" as="geometry" />
        </mxCell>
      </root>
    </mxGraphModel>
  </diagram>
</mxfile>
